<svg xmlns="http://www.w3.org/2000/svg" width="146.675px" height="70.4px" viewBox="176.6625 39.8 146.675 70.4" style="background: rgba(0, 0, 0, 0);" preserveAspectRatio="xMidYMid"><defs><linearGradient id="editing-sticker-gradient" x1="0.5" y1="0.2" x2="0.5" y2="0.8"><stop offset="0" stop-color="#fd9"/><stop offset="1" stop-color="#9df"/></linearGradient><filter id="editing-sticker" x="-100%" y="-100%" width="300%" height="300%"><feMorphology operator="erode" radius="1" in="SourceAlpha" result="alpha-erode"/><feConvolveMatrix order="3,3" divisor="1" kernelMatrix="0 1 0 1 1 1 0 1 0" in="alpha-erode" result="alpha-round"/><feMorphology operator="dilate" radius="3.5" in="alpha-round" result="dilate-shadow"/><feGaussianBlur in="dilate-shadow" stdDeviation="1.5" result="shadow"/><feFlood flood-color="#fff" result="flood-sticker"/><feComposite operator="in" in="flood-sticker" in2="alpha-round" result="comp-sticker"/><feMorphology operator="dilate" radius="3" in="comp-sticker" result="morph-sticker"/><feConvolveMatrix order="3,3" divisor="1" kernelMatrix="0 1 0 1 1 1 0 1 0" in="morph-sticker" result="sticker"/><feMerge><feMergeNode in="shadow"/><feMergeNode in="sticker"/><feMergeNode in="SourceGraphic"/></feMerge></filter></defs><g filter="url(#editing-sticker)"><g transform="translate(203.26500713825226, 86.21500015258789)"><path d="M1.34-19.84L1.34-19.84L1.34-19.84Q2.27-21.76 4.85-21.76L4.85-21.76L4.85-21.76Q7.42-21.76 8.62-20.27L8.62-20.27L8.62-20.27Q9.82-18.78 9.82-15.36L9.82-15.36L9.82-3.94L17.60-21.09L21.41-21.09L11.46 0L3.97 0L3.01-15.36L3.01-15.36Q2.91-17.06 2.45-18.21L2.45-18.21L2.45-18.21Q1.98-19.36 1.34-19.84ZM32.64-21.34L32.64-21.34L32.64-21.34Q40.48-21.34 40.48-15.81L40.48-15.81L40.48-15.81Q40.48-12.77 38.53-10.94L38.53-10.94L38.53-10.94Q36.61-9.12 33.25-9.12L33.25-9.12L33.25-9.12Q31.68-9.12 30.46-10.02L30.46-10.02L30.46-10.02Q29.89-10.40 29.50-10.91L29.50-10.91L29.50-10.91Q31.84-10.91 33.07-12.34L33.07-12.34L33.07-12.34Q34.30-13.76 34.30-16.54L34.30-16.54L34.30-16.54Q34.30-19.33 31.55-19.33L31.55-19.33L30.78-19.33L30.78-19.33Q30.59-19.33 30.43-19.30L30.43-19.30L26.75 0L19.81 0L23.74-20.96L23.74-20.96Q27.17-21.28 29.15-21.31L29.15-21.31L29.15-21.31Q31.14-21.34 32.64-21.34ZM53.12-14.78L53.12-14.78L53.12-14.78Q53.60-15.74 53.60-16.64L53.60-16.64L53.60-16.64Q53.60-17.54 53.50-18.03L53.50-18.03L53.50-18.03Q53.41-18.53 53.18-18.91L53.18-18.91L53.18-18.91Q52.70-19.74 51.74-19.74L51.74-19.74L51.74-19.74Q50.56-19.74 49.60-18.88L49.60-18.88L49.60-18.88Q48.58-17.98 48.58-16.58L48.58-16.58L48.58-16.58Q48.58-15.68 49.20-14.99L49.20-14.99L49.20-14.99Q49.82-14.30 50.78-13.66L50.78-13.66L50.78-13.66Q51.74-13.02 52.83-12.38L52.83-12.38L52.83-12.38Q53.92-11.74 54.88-10.98L54.88-10.98L54.88-10.98Q57.09-9.22 57.09-6.85L57.09-6.85L57.09-6.85Q57.09-5.25 56.24-3.89L56.24-3.89L56.24-3.89Q55.39-2.53 53.98-1.54L53.98-1.54L53.98-1.54Q50.91 0.64 46.85 0.64L46.85 0.64L46.85 0.64Q43.55 0.64 41.86-0.43L41.86-0.43L41.86-0.43Q40.16-1.50 40.16-3.14L40.16-3.14L40.16-3.14Q40.16-6.05 42.43-6.78L42.43-6.78L42.43-6.78Q43.07-7.01 44.05-7.01L44.05-7.01L44.05-7.01Q45.02-7.01 46.14-6.59L46.14-6.59L46.14-6.59Q45.63-5.28 45.63-4.10L45.63-4.10L45.63-4.10Q45.63-1.54 47.46-1.54L47.46-1.54L47.46-1.54Q48.64-1.54 49.62-2.40L49.62-2.40L49.62-2.40Q50.59-3.26 50.59-4.24L50.59-4.24L50.59-4.24Q50.59-5.22 49.97-5.92L49.97-5.92L49.97-5.92Q49.34-6.62 48.42-7.18L48.42-7.18L48.42-7.18Q47.49-7.74 46.42-8.29L46.42-8.29L46.42-8.29Q45.34-8.83 44.42-9.60L44.42-9.60L44.42-9.60Q42.24-11.36 42.24-14.18L42.24-14.18L42.24-14.18Q42.24-16 43.14-17.42L43.14-17.42L43.14-17.42Q44.03-18.85 45.47-19.81L45.47-19.81L45.47-19.81Q48.35-21.76 51.89-21.76L51.89-21.76L51.89-21.76Q55.42-21.76 57.14-20.70L57.14-20.70L57.14-20.70Q58.85-19.65 58.85-17.86L58.85-17.86L58.85-17.86Q58.85-16.29 57.63-15.30L57.63-15.30L57.63-15.30Q56.58-14.46 55.30-14.46L55.30-14.46L55.30-14.46Q54.02-14.46 53.12-14.78ZM66.14 0L59.17 0L63.23-21.12L70.27-21.12L66.14 0ZM71.46-7.81L71.46-7.81L71.46-7.81Q71.46-13.86 74.59-17.66L74.59-17.66L74.59-17.66Q77.92-21.79 83.71-21.79L83.71-21.79L83.71-21.79Q87.90-21.79 90.02-19.76L90.02-19.76L90.02-19.76Q92.13-17.73 92.13-13.44L92.13-13.44L92.13-13.44Q92.13-6.91 88.80-3.10L88.80-3.10L88.80-3.10Q85.50 0.64 79.97 0.64L79.97 0.64L79.97 0.64Q75.65 0.64 73.55-1.52L73.55-1.52L73.55-1.52Q71.46-3.68 71.46-7.81ZM79.87-14.43L79.87-14.43L79.87-14.43Q78.43-8.67 78.43-4.13L78.43-4.13L78.43-4.13Q78.43-3.04 78.80-2.34L78.80-2.34L78.80-2.34Q79.17-1.63 80.14-1.63L80.14-1.63L80.14-1.63Q81.12-1.63 81.73-2.10L81.73-2.10L81.73-2.10Q82.34-2.56 82.82-3.62L82.82-3.62L82.82-3.62Q83.58-5.34 84.30-9.01L84.30-9.01L84.30-9.01Q85.02-12.67 85.09-14.19L85.09-14.19L85.09-14.19Q85.15-15.71 85.15-16.86L85.15-16.86L85.15-16.86Q85.15-18.02 84.80-18.75L84.80-18.75L84.80-18.75Q84.45-19.49 83.50-19.49L83.50-19.49L83.50-19.49Q82.56-19.49 81.92-18.91L81.92-18.91L81.92-18.91Q80.74-17.82 79.87-14.43Z" fill="url(#editing-sticker-gradient)" stroke="#000" stroke-width="2.5"/></g></g><style>text {
  font-size: 64px;
  font-family: Arial Black;
  dominant-baseline: central;
  text-anchor: middle;
}</style></svg>